<svg xmlns="http://www.w3.org/2000/svg" viewBox="0 0 366.11 366.11"><defs><style>.cls-1{fill:none;stroke:#6fccea;stroke-width:37px;}.cls-1,.cls-2,.cls-3{stroke-miterlimit:10;}.cls-2,.cls-3{fill:#6fccea;}.cls-2{stroke:#71d0f1;stroke-width:5px;}.cls-3{stroke:#fff;stroke-width:2px;}</style></defs><title>vektor-logo (5)</title><g id="Layer_1" data-name="Layer 1"><circle class="cls-1" cx="183.05" cy="183.05" r="164.55"/></g><g id="Layer_2" data-name="Layer 2"><path class="cls-2" d="M386.3,135.11a251.72,251.72,0,0,0,29.63-47.52c7.22,17.39,15.4,33.9,27.29,49.53-3.78-1.32-6.94-2.45-11-3.9,0,4.85-10.72,236.84-11.48,244-.14,1.26-.48,2.39,1.37,3s2.41-.25,3.24-1.38c24.74-34.73,53.21-67,81.32-99.46q40.11-46.23,79.95-92.52c2.55-2.9,2.55-2.9-1.3-4.09-1.72-.51-3.44-1.07-5.16-1.64a12.59,12.59,0,0,1-1.58-.76c19.66-4.85,37.67-12.16,55.55-21.17-5.78,17.89-9.9,35.42-10.73,54.07a35.29,35.29,0,0,1-5.22-7.31c-1.24-1.95-1.93-2.65-3.92-.44-15.26,17.33-30.59,34.54-45.92,51.8-9.42,10.59-18.77,21.18-28.19,31.77-.89,1-61.11,68.63-61.11,68.63s-7,8-10.52,12c-13.06,14.75-26.19,29.43-39.19,44.24-1.44,1.64-2.61,2.33-5.08,1.45-10.38-3.53-20.83-6.87-31.35-10.15-2.13-.69-2.75-1.64-2.68-3.65.62-20.42,6.6-262.75,6.87-267.48.07-1.89-.27-2.39-2.34-1.7-2.75,1.07-5.63,1.77-8.45,2.65Z" transform="translate(-300.05 -66.86)"/><path class="cls-3" d="M386.3,135.11a251.72,251.72,0,0,0,29.63-47.52c7.22,17.39,15.4,33.9,27.29,49.53-3.78-1.32-6.94-2.45-11-3.9,0,4.85-10.72,236.84-11.48,244-.14,1.26-.48,2.39,1.37,3s2.41-.25,3.24-1.38c24.74-34.73,53.21-67,81.32-99.46q40.11-46.23,79.95-92.52c2.55-2.9,2.55-2.9-1.3-4.09-1.72-.51-3.44-1.07-5.16-1.64a12.59,12.59,0,0,1-1.58-.76c19.66-4.85,37.67-12.16,55.55-21.17-5.78,17.89-9.9,35.42-10.73,54.07a35.29,35.29,0,0,1-5.22-7.31c-1.24-1.95-1.93-2.65-3.92-.44-15.26,17.33-30.59,34.54-45.92,51.8-9.42,10.59-18.77,21.18-28.19,31.77-.89,1-61.11,68.63-61.11,68.63s-7,8-10.52,12c-13.06,14.75-26.19,29.43-39.19,44.24-1.44,1.64-2.61,2.33-5.08,1.45-10.38-3.53-20.83-6.87-31.35-10.15-2.13-.69-2.75-1.64-2.68-3.65.62-20.42,6.6-262.75,6.87-267.48.07-1.89-.27-2.39-2.34-1.7-2.75,1.07-5.63,1.77-8.45,2.65Z" transform="translate(-300.05 -66.86)"/></g></svg>